<?xml version="1.0" encoding="UTF-8"?><svg id="Capa_1" xmlns="http://www.w3.org/2000/svg" viewBox="0 0 494 492.5"><path d="m494,247c0-.25635-.00891-.51038-.0097-.76648.00024-.078.00323-.1554.00342-.23352h-.00635C493.44714,110.04669,383.07996,0,247,0S.55286,110.04669.01263,246h-.00635c.00018.07812.00317.15552.00342.23352-.00079.2561-.0097.51013-.0097.76648,0,.16724.00598.33289.00629.5h.02191c1.07721,135.49133,111.2265,245,246.9718,245s245.89459-109.50867,246.9718-245h.02191c.00031-.16711.00629-.33276.00629-.5Zm-247,66c-36.39258,0-66-29.60742-66-66s29.60742-66,66-66,66,29.60742,66,66-29.60742,66-66,66ZM33.22559,156.69971c11.6842-27.62463,28.41431-52.43719,49.72565-73.74854,21.3114-21.31128,46.1239-38.04138,73.74847-49.72571,28.59253-12.09344,58.97394-18.22546,90.30029-18.22546s61.70782,6.13202,90.30029,18.22546c27.62463,11.68433,52.43713,28.41443,73.74854,49.72571,21.31128,21.31134,38.04138,46.1239,49.72559,73.74854,10.21875,24.15979,16.18091,49.59509,17.784,75.80029h-136.74542c-7.01013-46.02832-46.85712-81.40796-94.81299-81.40796s-87.8028,35.37964-94.81293,81.40796H15.44165c1.60303-26.2052,7.56525-51.6405,17.78394-75.80029Zm427.41418,179.40552c-11.70837,27.57227-28.44629,52.33398-49.74866,73.59741-21.30432,21.26538-46.09851,37.95825-73.69391,49.61475-28.5625,12.06519-58.90918,18.18262-90.1972,18.18262s-61.6347-6.11743-90.1972-18.18262c-27.5954-11.65649-52.38959-28.34937-73.69391-49.61475-21.30237-21.26343-38.04028-46.02515-49.74866-73.59741-10.16571-23.93945-16.14923-49.14026-17.84918-75.10522h136.84265c7.43109,45.5387,47.03925,80.40796,94.6463,80.40796s87.21527-34.86926,94.64636-80.40796h136.84259c-1.69995,25.96497-7.68347,51.16577-17.84918,75.10522Z" fill="#fff"/><path d="m247,198c-27.01855,0-49,21.98145-49,49s21.98145,49,49,49,49-21.98145,49-49-21.98145-49-49-49Zm0,83c-18.74756,0-34-15.25195-34-34s15.25244-34,34-34,34,15.25195,34,34-15.25244,34-34,34Z" fill="#fff"/></svg>