<?xml version="1.0" encoding="UTF-8"?><svg id="Capa_1" xmlns="http://www.w3.org/2000/svg" viewBox="0 0 493.99 246.5"><path d="m341.64,15c-7.43,45.54-47.04,80.41-94.65,80.41S159.78,60.54,152.35,15H15.5c1.7,25.96,7.68,51.17,17.85,75.11,11.71,27.57,28.45,52.33,49.75,73.6,21.3,21.27,46.1,37.96,73.69,49.61,28.56,12.07,58.91,18.18,90.2,18.18s61.63-6.12,90.2-18.18c27.6-11.66,52.39-28.35,73.69-49.61,21.3-21.26,38.04-46.03,49.75-73.6,10.17-23.94,16.15-49.14,17.85-75.11h-136.84Z" fill="#fff"/><path d="m342.9,0h-15.41c-.27,44.11-36.37,80-80.49,80S166.77,44.11,166.51,0h-.5s0,0,0,0H0c.27,136.18,110.75,246.5,246.99,246.5S493.72,136.19,493.99,0h-151.09Zm67.99,163.7c-21.3,21.27-46.1,37.96-73.69,49.61-28.56,12.07-58.91,18.18-90.2,18.18s-61.63-6.12-90.2-18.18c-27.6-11.66-52.39-28.35-73.69-49.61-21.3-21.26-38.04-46.03-49.75-73.6C23.19,66.17,17.2,40.97,15.5,15h136.84c7.43,45.54,47.04,80.41,94.65,80.41s87.22-34.87,94.65-80.41h136.84c-1.7,25.96-7.68,51.17-17.85,75.11-11.71,27.57-28.45,52.33-49.75,73.6Z"/></svg>