<?xml version="1.0" encoding="UTF-8"?><svg id="Capa_1" xmlns="http://www.w3.org/2000/svg" viewBox="0 0 494 328"><path d="m411.05,82.95c-21.31-21.31-46.12-38.04-73.75-49.73-28.59-12.09-58.97-18.23-90.3-18.23s-61.71,6.13-90.3,18.23c-27.62,11.68-52.44,28.41-73.75,49.73-21.31,21.31-38.04,46.12-49.73,73.75-10.22,24.16-16.18,49.6-17.78,75.8h136.75c7.01-46.03,46.86-81.41,94.81-81.41s87.8,35.38,94.81,81.41h136.75c-1.6-26.21-7.57-51.64-17.78-75.8-11.68-27.62-28.41-52.44-49.73-73.75Z" fill="#d81e1e"/><path d="m247,0C110.59,0,0,110.59,0,247c0,.17,0,.33,0,.5h166.01c.03,5.13.56,10.14,1.51,15,7.25,37.27,40.12,65.5,79.48,65.5s72.22-28.23,79.48-65.5c.95-4.86,1.48-9.87,1.51-15h166.01c0-.17,0-.33,0-.5C494,110.59,383.41,0,247,0Zm94.81,232.5c-7.01-46.03-46.86-81.41-94.81-81.41s-87.8,35.38-94.81,81.41H15.44c1.6-26.21,7.57-51.64,17.78-75.8,11.68-27.62,28.41-52.44,49.73-73.75,21.31-21.31,46.12-38.04,73.75-49.73,28.59-12.09,58.97-18.23,90.3-18.23s61.71,6.13,90.3,18.23c27.62,11.68,52.44,28.41,73.75,49.73,21.31,21.31,38.04,46.12,49.73,73.75,10.22,24.16,16.18,49.6,17.78,75.8h-136.75Z"/><path d="m247,181c-36.39,0-66,29.61-66,66s29.61,66,66,66,66-29.61,66-66-29.61-66-66-66Zm0,115c-27.02,0-49-21.98-49-49s21.98-49,49-49,49,21.98,49,49-21.98,49-49,49Z" fill="#fff"/><circle cx="247" cy="247" r="34" fill="#fff"/><path d="m247,198c-27.02,0-49,21.98-49,49s21.98,49,49,49,49-21.98,49-49-21.98-49-49-49Zm0,83c-18.75,0-34-15.25-34-34s15.25-34,34-34,34,15.25,34,34-15.25,34-34,34Z"/></svg>